<svg width="24" height="24" viewBox="0 0 24 24" fill="none" xmlns="http://www.w3.org/2000/svg">
<path d="M10.4172 11.5378C10.4172 11.5378 11.9733 11.4196 11.9733 9.55768C11.9733 7.6973 10.9179 6.78022 9.3048 6.78022L3.77869 6.77148V17.0527H9.43331C9.43331 17.0527 12.2606 17.1421 12.2606 13.9683C12.2606 13.9683 12.4683 11.5378 10.4172 11.5378ZM5.83491 8.31366H8.66223C8.66223 8.31366 9.62968 8.3296 9.62968 9.5839C9.62968 10.884 8.66223 10.884 8.66223 10.884H5.83491V8.31366ZM8.91926 15.5105H5.83491V12.4261H8.91926C8.91926 12.4261 10.4614 12.4421 10.4614 13.9683C10.4614 15.4945 9.14133 15.5105 8.91926 15.5105Z" fill="white"/>
<path d="M16.6302 9.34201C12.7681 9.34201 12.7748 13.1974 12.7748 13.1974C12.7748 13.1974 12.5178 17.0529 16.6302 17.0529C16.6302 17.0529 20.2286 17.0529 20.2286 13.9685H18.1724C18.1724 13.9685 18.1724 15.5107 16.6302 15.5107C16.6302 15.5107 15.0881 15.5107 15.0881 13.4545C15.0881 13.4545 19.2005 13.4545 20.2286 13.4545C20.2286 12.4264 20.2286 9.34201 16.6302 9.34201ZM15.0881 12.4264C15.0881 12.4264 15.0541 10.8842 16.6302 10.8842C18.2058 10.8842 18.1724 12.4264 18.1724 12.4264H15.0881Z" fill="white"/>
<path d="M18.6866 7.79969H14.5742V8.82781H18.6866V7.79969Z" fill="white"/>
</svg>
