<svg width="26" height="26" viewBox="0 0 26 26" fill="none" xmlns="http://www.w3.org/2000/svg">
<path d="M7.85714 4.75C8.27136 4.75 8.60714 4.41421 8.60714 4C8.60714 3.58579 8.27136 3.25 7.85714 3.25V4.75ZM18.1429 3.25C17.7286 3.25 17.3929 3.58579 17.3929 4C17.3929 4.41421 17.7286 4.75 18.1429 4.75V3.25ZM7.85711 3.25045C7.4429 3.25045 7.10711 3.58624 7.10711 4.00045C7.10711 4.41466 7.4429 4.75045 7.85711 4.75045V3.25045ZM18.1428 4.75045C18.557 4.75045 18.8928 4.41466 18.8928 4.00045C18.8928 3.58624 18.557 3.25045 18.1428 3.25045V4.75045ZM8.60721 4C8.60721 3.58579 8.27143 3.25 7.85721 3.25C7.443 3.25 7.10721 3.58579 7.10721 4H8.60721ZM7.10721 5.5009C7.10721 5.91511 7.443 6.2509 7.85721 6.2509C8.27143 6.2509 8.60721 5.91511 8.60721 5.5009H7.10721ZM7.10714 4.0018C7.10714 4.41601 7.44293 4.7518 7.85714 4.7518C8.27136 4.7518 8.60714 4.41601 8.60714 4.0018H7.10714ZM8.60714 1C8.60714 0.585786 8.27136 0.25 7.85714 0.25C7.44293 0.25 7.10714 0.585786 7.10714 1H8.60714ZM18.8929 4C18.8929 3.58579 18.5571 3.25 18.1429 3.25C17.7286 3.25 17.3929 3.58579 17.3929 4H18.8929ZM17.3929 5.5009C17.3929 5.91511 17.7286 6.2509 18.1429 6.2509C18.5571 6.2509 18.8929 5.91511 18.8929 5.5009H17.3929ZM17.3929 4.0018C17.3929 4.41601 17.7286 4.7518 18.1429 4.7518C18.5571 4.7518 18.8929 4.41601 18.8929 4.0018H17.3929ZM18.8929 1C18.8929 0.585786 18.5571 0.25 18.1429 0.25C17.7286 0.25 17.3929 0.585786 17.3929 1H18.8929ZM7.85714 4V3.25C3.75304 3.25 0.250002 6.18114 0.250002 10H1H1.75C1.75 7.19144 4.38706 4.75 7.85714 4.75V4ZM1 10H0.250002L0.250002 19H1H1.75L1.75 10H1ZM1 19H0.250002C0.250002 22.8189 3.75304 25.75 7.85714 25.75V25V24.25C4.38706 24.25 1.75 21.8086 1.75 19H1ZM7.85714 25V25.75H18.1429V25V24.25H7.85714V25ZM18.1429 25V25.75C22.247 25.75 25.75 22.8189 25.75 19H25H24.25C24.25 21.8086 21.6129 24.25 18.1429 24.25V25ZM25 19H25.75L25.75 10H25H24.25L24.25 19H25ZM25 10H25.75C25.75 6.18114 22.247 3.25 18.1429 3.25V4V4.75C21.6129 4.75 24.25 7.19144 24.25 10H25ZM7.85711 4.00045V4.75045H18.1428V4.00045V3.25045H7.85711V4.00045ZM7.85721 4H7.10721V5.5009H7.85721H8.60721V4H7.85721ZM7.85714 4.0018H8.60714V1H7.85714H7.10714V4.0018H7.85714ZM18.1429 4H17.3929V5.5009H18.1429H18.8929V4H18.1429ZM18.1429 4.0018H18.8929V1H18.1429H17.3929V4.0018H18.1429Z" fill="white"/>
<path d="M6.14282 14.5L9.57139 19L19.8571 11.5" stroke="white" stroke-width="1.5" stroke-linecap="round" stroke-linejoin="round"/>
</svg>
