<svg width="26" height="26" viewBox="0 0 26 26" fill="none" xmlns="http://www.w3.org/2000/svg">
<path fill-rule="evenodd" clip-rule="evenodd" d="M1 10V19C1 22.3137 4.07005 25 7.85714 25H18.1429C21.93 25 25 22.3137 25 19V10C25 6.68629 21.93 4 18.1429 4H7.85714C4.07005 4 1 6.68629 1 10Z" stroke="white" stroke-width="1.5" stroke-linecap="round" stroke-linejoin="round"/>
<path d="M17.3929 5.5C17.3929 5.91421 17.7287 6.25 18.1429 6.25C18.5571 6.25 18.8929 5.91421 18.8929 5.5H17.3929ZM18.8929 1C18.8929 0.585786 18.5571 0.25 18.1429 0.25C17.7287 0.25 17.3929 0.585786 17.3929 1H18.8929ZM7.10718 5.5C7.10718 5.91421 7.44296 6.25 7.85718 6.25C8.27139 6.25 8.60718 5.91421 8.60718 5.5H7.10718ZM8.60718 1C8.60718 0.585786 8.27139 0.25 7.85718 0.25C7.44296 0.25 7.10718 0.585786 7.10718 1H8.60718ZM7.10721 11.929C7.10721 12.3432 7.443 12.679 7.85721 12.679C8.27143 12.679 8.60721 12.3432 8.60721 11.929H7.10721ZM13.0001 11.929L13.7483 11.9799C13.7495 11.963 13.7501 11.946 13.7501 11.929H13.0001ZM11.9093 13.8511L12.3593 14.4511L12.3593 14.4511L11.9093 13.8511ZM9.5715 14.5L9.5097 13.7525C9.12077 13.7847 8.8215 14.1097 8.8215 14.5C8.8215 14.8902 9.12077 15.2153 9.5097 15.2474L9.5715 14.5ZM11.9093 15.1489L12.3593 14.5488L11.9093 15.1489ZM13.0001 17.071H13.7501C13.7501 17.054 13.7495 17.037 13.7483 17.02L13.0001 17.071ZM8.60721 17.071C8.60721 16.6568 8.27143 16.321 7.85721 16.321C7.443 16.321 7.10721 16.6568 7.10721 17.071H8.60721ZM15.9785 10.6855C15.6472 10.934 15.58 11.4041 15.8285 11.7355C16.077 12.0668 16.5471 12.134 16.8785 11.8855L15.9785 10.6855ZM18.1428 10H18.8928C18.8928 9.71593 18.7323 9.45624 18.4782 9.32919C18.2242 9.20214 17.9201 9.22954 17.6928 9.39997L18.1428 10ZM17.3928 19C17.3928 19.4142 17.7286 19.75 18.1428 19.75C18.557 19.75 18.8928 19.4142 18.8928 19H17.3928ZM18.1429 5.5H18.8929V1H18.1429H17.3929V5.5H18.1429ZM7.85718 5.5H8.60718V1H7.85718H7.10718V5.5H7.85718ZM7.85721 11.929H8.60721C8.60721 11.5772 8.76747 11.313 9.07676 11.1069C9.40828 10.8859 9.89702 10.7507 10.4286 10.7507C10.9603 10.7507 11.449 10.8859 11.7805 11.1069C12.0898 11.313 12.2501 11.5772 12.2501 11.929H13.0001H13.7501C13.7501 10.9952 13.2675 10.2953 12.6125 9.85873C11.9797 9.43695 11.1827 9.25073 10.4286 9.25073C9.67455 9.25073 8.87757 9.43695 8.24481 9.85873C7.58982 10.2953 7.10721 10.9952 7.10721 11.929H7.85721ZM13.0001 11.929L12.2518 11.878C12.2174 12.3841 11.9478 12.8848 11.4594 13.2511L11.9093 13.8511L12.3593 14.4511C13.1637 13.8479 13.6815 12.9611 13.7483 11.9799L13.0001 11.929ZM11.9093 13.8511L11.4594 13.2511C10.9679 13.6196 10.3085 13.8084 9.6333 13.7525L9.5715 14.5L9.5097 15.2474C10.5297 15.3318 11.5578 15.0521 12.3593 14.4511L11.9093 13.8511ZM9.5715 14.5L9.6333 15.2474C10.3085 15.1916 10.9679 15.3804 11.4594 15.7489L11.9093 15.1489L12.3593 14.5488C11.5578 13.9478 10.5297 13.6682 9.5097 13.7525L9.5715 14.5ZM11.9093 15.1489L11.4594 15.7489C11.9478 16.1152 12.2174 16.6159 12.2518 17.1219L13.0001 17.071L13.7483 17.02C13.6815 16.0388 13.1637 15.1521 12.3593 14.5488L11.9093 15.1489ZM13.0001 17.071H12.2501C12.2501 17.4227 12.0898 17.6869 11.7805 17.8931C11.449 18.1141 10.9603 18.2492 10.4286 18.2492C9.89702 18.2492 9.40828 18.1141 9.07676 17.8931C8.76747 17.6869 8.60721 17.4227 8.60721 17.071H7.85721H7.10721C7.10721 18.0047 7.58982 18.7047 8.24481 19.1412C8.87757 19.563 9.67455 19.7492 10.4286 19.7492C11.1827 19.7492 11.9797 19.563 12.6125 19.1412C13.2675 18.7047 13.7501 18.0047 13.7501 17.071H13.0001ZM16.4285 11.2855L16.8785 11.8855L18.5927 10.6L18.1428 10L17.6928 9.39997L15.9785 10.6855L16.4285 11.2855ZM18.1428 10H17.3928V19H18.1428H18.8928V10H18.1428Z" fill="white"/>
</svg>
