<svg width="26" height="26" viewBox="0 0 26 26" fill="none" xmlns="http://www.w3.org/2000/svg">
<path d="M24.2504 8.02439C24.2639 8.43839 24.6104 8.76306 25.0244 8.74958C25.4384 8.73609 25.7631 8.38955 25.7496 7.97555L24.2504 8.02439ZM18 0.999973V1.74997C18.0091 1.74997 18.0183 1.74981 18.0274 1.74947L18 0.999973ZM8 0.999973L7.97262 1.74947C7.98174 1.74981 7.99087 1.74997 8 1.74997V0.999973ZM0.250398 7.97555C0.236911 8.38955 0.561587 8.73609 0.975581 8.74958C1.38957 8.76306 1.73612 8.43839 1.7496 8.02439L0.250398 7.97555ZM25.75 7.99997C25.75 7.58576 25.4142 7.24997 25 7.24997C24.5858 7.24997 24.25 7.58576 24.25 7.99997H25.75ZM25 18L25.7496 18.0251C25.7499 18.0167 25.75 18.0084 25.75 18H25ZM18 25L18.0266 24.2504C18.0177 24.2501 18.0089 24.25 18 24.25V25ZM8 25V24.25C7.99113 24.25 7.98226 24.2501 7.97339 24.2504L8 25ZM1 18H0.25C0.25 18.0084 0.25014 18.0167 0.250421 18.0251L1 18ZM1.75 7.99997C1.75 7.58576 1.41421 7.24997 1 7.24997C0.585786 7.24997 0.25 7.58576 0.25 7.99997H1.75ZM25.3975 8.63597C25.7488 8.41644 25.8555 7.95373 25.636 7.60247C25.4165 7.25122 24.9538 7.14444 24.6025 7.36397L25.3975 8.63597ZM17 13L17.389 13.6413L17.3975 13.636L17 13ZM9 13L8.60247 13.636L8.61102 13.6412L9 13ZM1.3975 7.36397C1.04625 7.14444 0.583534 7.25122 0.364001 7.60247C0.144469 7.95373 0.251248 8.41644 0.602501 8.63597L1.3975 7.36397ZM25 7.99997L25.7496 7.97555C25.6072 3.60478 22.0901 0.100041 17.9726 0.250473L18 0.999973L18.0274 1.74947C21.2288 1.63251 24.1322 4.3954 24.2504 8.02439L25 7.99997ZM18 0.999973V0.249973H8V0.999973V1.74997H18V0.999973ZM8 0.999973L8.02738 0.250473C3.9099 0.100041 0.39278 3.60478 0.250398 7.97555L1 7.99997L1.7496 8.02439C1.86782 4.3954 4.77116 1.63251 7.97262 1.74947L8 0.999973ZM25 7.99997H24.25V18H25H25.75V7.99997H25ZM25 18L24.2504 17.9748C24.1323 21.4992 21.2214 24.3639 18.0266 24.2504L18 25L17.9734 25.7495C22.0975 25.8959 25.6071 22.2747 25.7496 18.0251L25 18ZM18 25V24.25H8V25V25.75H18V25ZM8 25L7.97339 24.2504C4.77859 24.3639 1.86772 21.4992 1.74958 17.9748L1 18L0.250421 18.0251C0.392876 22.2747 3.90247 25.8959 8.02661 25.7495L8 25ZM1 18H1.75V7.99997H1H0.25V18H1ZM25 7.99997L24.6025 7.36397L16.6025 12.364L17 13L17.3975 13.636L25.3975 8.63597L25 7.99997ZM17 13L16.611 12.3587C15.6534 12.9396 14.3472 13.2525 13 13.2525C11.6528 13.2525 10.3466 12.9396 9.38898 12.3587L9 13L8.61102 13.6412C9.85691 14.397 11.4489 14.7525 13 14.7525C14.5511 14.7525 16.1431 14.397 17.389 13.6412L17 13ZM9 13L9.3975 12.364L1.3975 7.36397L1 7.99997L0.602501 8.63597L8.6025 13.636L9 13Z" fill="white"/>
</svg>
