<svg width="26" height="25" viewBox="0 0 26 25" fill="none" xmlns="http://www.w3.org/2000/svg">
<path fill-rule="evenodd" clip-rule="evenodd" d="M16 6.36846C15.9833 7.45239 14.3768 8.34565 13 8.33691C11.6233 8.32816 10.9945 7.45247 11 6.36846C11.0055 5.28446 11.6233 4.4001 13 4.40002C13.6672 4.403 14.5311 5.01057 15 5.38424C15.4689 5.75792 16.0043 5.84317 16 6.36846V6.36846Z" stroke="white" stroke-width="1.5" stroke-linecap="round" stroke-linejoin="round"/>
<path d="M9 12.0395C9.41421 12.0395 9.75 11.7038 9.75 11.2895C9.75 10.8753 9.41421 10.5395 9 10.5395V12.0395ZM3 11.2895V10.5395C2.6274 10.5395 2.3113 10.8131 2.25778 11.1818L3 11.2895ZM1.25778 18.0714C1.19828 18.4813 1.48235 18.8618 1.89227 18.9213C2.30219 18.9808 2.68272 18.6967 2.74222 18.2868L1.25778 18.0714ZM9 12.0395C9.41421 12.0395 9.75 11.7038 9.75 11.2895C9.75 10.8753 9.41421 10.5395 9 10.5395V12.0395ZM8 11.2895L7.56187 11.8983C7.68949 11.9901 7.84276 12.0395 8 12.0395V11.2895ZM8 2.43156L7.57592 1.81298C7.5712 1.81621 7.56651 1.8195 7.56187 1.82284L8 2.43156ZM18 2.43156L18.4381 1.82284C18.4311 1.8178 18.424 1.81289 18.4169 1.80809L18 2.43156ZM18 11.2895V12.0395C18.1572 12.0395 18.3105 11.9901 18.4381 11.8983L18 11.2895ZM17 10.5395C16.5858 10.5395 16.25 10.8753 16.25 11.2895C16.25 11.7038 16.5858 12.0395 17 12.0395V10.5395ZM9.33116 10.6166C8.95951 10.4337 8.50996 10.5867 8.32707 10.9584C8.14418 11.33 8.29719 11.7796 8.66884 11.9625L9.33116 10.6166ZM10.6688 12.9467C11.0405 13.1296 11.49 12.9766 11.6729 12.6049C11.8558 12.2333 11.7028 11.7837 11.3312 11.6008L10.6688 12.9467ZM17 10.5395C16.5858 10.5395 16.25 10.8753 16.25 11.2895C16.25 11.7038 16.5858 12.0395 17 12.0395V10.5395ZM23 11.2895L23.7395 11.1643C23.6784 10.8036 23.3659 10.5395 23 10.5395V11.2895ZM23.2605 17.3201C23.3297 17.7285 23.7168 18.0035 24.1252 17.9343C24.5336 17.8652 24.8086 17.478 24.7395 17.0696L23.2605 17.3201ZM18.3814 11.9353C18.738 11.7247 18.8564 11.2648 18.6458 10.9082C18.4352 10.5515 17.9753 10.4331 17.6186 10.6437L18.3814 11.9353ZM13 14.2422L12.6688 14.9151C12.8957 15.0268 13.1636 15.0166 13.3814 14.888L13 14.2422ZM11.3312 12.5851C10.9595 12.4022 10.51 12.5552 10.3271 12.9268C10.1442 13.2985 10.2972 13.748 10.6688 13.9309L11.3312 12.5851ZM2.73947 18.3043C2.80863 17.8959 2.53362 17.5088 2.12522 17.4396C1.71682 17.3705 1.32969 17.6455 1.26053 18.0539L2.73947 18.3043ZM1 24.0844L0.260527 23.9592C0.223661 24.1769 0.284602 24.3998 0.427106 24.5684C0.569609 24.7371 0.779195 24.8344 1 24.8344V24.0844ZM11 24.8344C11.4142 24.8344 11.75 24.4986 11.75 24.0844C11.75 23.6702 11.4142 23.3344 11 23.3344V24.8344ZM1.55458 17.5757C1.22133 17.8217 1.15059 18.2912 1.39659 18.6245C1.64259 18.9578 2.11216 19.0285 2.44542 18.7825L1.55458 17.5757ZM6.44542 15.8298C6.77867 15.5838 6.84941 15.1143 6.60341 14.781C6.35741 14.4478 5.88784 14.377 5.55458 14.623L6.44542 15.8298ZM10.4454 12.8772C10.7787 12.6312 10.8494 12.1616 10.6034 11.8284C10.3574 11.4951 9.88784 11.4244 9.55458 11.6704L10.4454 12.8772ZM5.55458 14.623C5.22133 14.869 5.15059 15.3386 5.39659 15.6718C5.64259 16.0051 6.11216 16.0758 6.44542 15.8298L5.55458 14.623ZM6.65313 14.8578C6.44952 14.497 5.99205 14.3697 5.63133 14.5733C5.27062 14.7769 5.14326 15.2344 5.34687 15.5951L6.65313 14.8578ZM10.3469 24.4531C10.5505 24.8138 11.008 24.9412 11.3687 24.7375C11.7294 24.5339 11.8567 24.0765 11.6531 23.7157L10.3469 24.4531ZM11 23.3344C10.5858 23.3344 10.25 23.6702 10.25 24.0844C10.25 24.4986 10.5858 24.8344 11 24.8344V23.3344ZM16 24.8344C16.4142 24.8344 16.75 24.4986 16.75 24.0844C16.75 23.6702 16.4142 23.3344 16 23.3344V24.8344ZM16 23.3344C15.5858 23.3344 15.25 23.6702 15.25 24.0844C15.25 24.4986 15.5858 24.8344 16 24.8344V23.3344ZM25 24.0844V24.8344C25.2208 24.8344 25.4304 24.7371 25.5729 24.5684C25.7154 24.3998 25.7763 24.1769 25.7395 23.9592L25 24.0844ZM24.7395 18.0539C24.6703 17.6455 24.2832 17.3705 23.8748 17.4396C23.4664 17.5088 23.1914 17.8959 23.2605 18.3043L24.7395 18.0539ZM15.5546 23.481C15.2213 23.727 15.1506 24.1966 15.3966 24.5298C15.6426 24.8631 16.1122 24.9338 16.4454 24.6878L15.5546 23.481ZM24.4454 18.7825C24.7787 18.5365 24.8494 18.0669 24.6034 17.7337C24.3574 17.4004 23.8878 17.3297 23.5546 17.5757L24.4454 18.7825ZM9 11.2895V10.5395H3V11.2895V12.0395H9V11.2895ZM3 11.2895L2.25778 11.1818L1.25778 18.0714L2 18.1791L2.74222 18.2868L3.74222 11.3973L3 11.2895ZM9 11.2895V10.5395H8V11.2895V12.0395H9V11.2895ZM8 11.2895L8.43813 10.6808C7.16625 9.76539 6.75 8.0407 6.75 6.36845H6H5.25C5.25 8.16984 5.68013 10.5439 7.56187 11.8983L8 11.2895ZM6 6.36845H6.75C6.75 5.55685 6.84995 4.98372 7.08367 4.50127C7.31551 4.02269 7.71428 3.56128 8.43813 3.04029L8 2.43156L7.56187 1.82284C6.70891 2.43676 6.10768 3.07538 5.73373 3.8473C5.36165 4.61536 5.25 5.44321 5.25 6.36845H6ZM8 2.43156L8.42408 3.05015C11.5091 0.935162 14.998 1.32658 17.5831 3.05504L18 2.43156L18.4169 1.80809C15.3996 -0.209354 11.2398 -0.698837 7.57592 1.81298L8 2.43156ZM18 2.43156L17.5619 3.04029C18.2857 3.56128 18.6845 4.02269 18.9163 4.50127C19.1501 4.98372 19.25 5.55685 19.25 6.36845H20H20.75C20.75 5.44321 20.6383 4.61536 20.2663 3.8473C19.8923 3.07538 19.2911 2.43676 18.4381 1.82284L18 2.43156ZM20 6.36845H19.25C19.25 8.0407 18.8337 9.76539 17.5619 10.6808L18 11.2895L18.4381 11.8983C20.3199 10.5439 20.75 8.16984 20.75 6.36845H20ZM18 11.2895V10.5395H17V11.2895V12.0395H18V11.2895ZM9 11.2895L8.66884 11.9625L10.6688 12.9467L11 12.2738L11.3312 11.6008L9.33116 10.6166L9 11.2895ZM17 11.2895V12.0395H23V11.2895V10.5395H17V11.2895ZM23 11.2895L22.2605 11.4148L23.2605 17.3201L24 17.1949L24.7395 17.0696L23.7395 11.1643L23 11.2895ZM18 11.2895L17.6186 10.6437L12.6186 13.5964L13 14.2422L13.3814 14.888L18.3814 11.9353L18 11.2895ZM13 14.2422L13.3312 13.5693L11.3312 12.5851L11 13.258L10.6688 13.9309L12.6688 14.9151L13 14.2422ZM2 18.1791L1.26053 18.0539L0.260527 23.9592L1 24.0844L1.73947 24.2096L2.73947 18.3043L2 18.1791ZM1 24.0844V24.8344H11V24.0844V23.3344H1V24.0844ZM2 18.1791L2.44542 18.7825L6.44542 15.8298L6 15.2264L5.55458 14.623L1.55458 17.5757L2 18.1791ZM10 12.2738L9.55458 11.6704L5.55458 14.623L6 15.2264L6.44542 15.8298L10.4454 12.8772L10 12.2738ZM6 15.2264L5.34687 15.5951L10.3469 24.4531L11 24.0844L11.6531 23.7157L6.65313 14.8578L6 15.2264ZM11 24.0844V24.8344H16V24.0844V23.3344H11V24.0844ZM16 24.0844V24.8344H25V24.0844V23.3344H16V24.0844ZM25 24.0844L25.7395 23.9592L24.7395 18.0539L24 18.1791L23.2605 18.3043L24.2605 24.2096L25 24.0844ZM16 24.0844L16.4454 24.6878L24.4454 18.7825L24 18.1791L23.5546 17.5757L15.5546 23.481L16 24.0844Z" fill="white"/>
</svg>
