<svg width="26" height="26" viewBox="0 0 26 26" fill="none" xmlns="http://www.w3.org/2000/svg">
<path fill-rule="evenodd" clip-rule="evenodd" d="M1.98875 2.99183C3.48144 1.40975 4.31759 1.20617 4.95368 0.99966C5.39389 0.883602 6.48707 0.895932 6.93031 0.99966C7.51381 1.17033 6.99357 1.07354 8.90693 2.99183C10.5879 4.6763 10.7224 5.65069 10.8836 5.98008C11.1917 6.55825 11.1075 6.36003 10.8836 6.97616C10.7139 7.44549 10.9147 7.93921 9.89524 8.96833L8.90693 9.96441C8.73231 10.143 8.79305 10.7377 8.90693 10.9605C10.3842 13.4964 12.3206 15.4436 14.8368 16.937C15.1264 17.093 15.5894 17.1672 15.8251 16.937L16.8134 15.9409C17.2087 15.5333 17.362 15.3034 17.8017 14.9448C18.4924 14.5182 19.0532 14.5808 19.7784 14.9448C20.1329 15.1155 21.0097 15.1962 22.7433 16.937C24.5311 18.7307 24.5232 18.5179 24.7199 18.9292C25.0902 19.61 25.0965 20.244 24.7199 20.9213C24.5282 21.3036 23.7492 21.8793 22.7433 22.9135C22.136 23.5381 21.8466 23.826 21.755 23.9096C20.9252 24.6008 19.864 24.9905 18.7901 24.9057C16.825 24.7255 14.5653 23.9125 12.8602 22.9135C9.08288 20.9 6.32552 18.5308 3.96537 14.9448C3.45132 14.1944 3.37315 12.7763 2.97706 11.9566C1.9145 10.1243 0.976856 8.10135 1.00044 5.98008C1.08155 4.87034 1.13495 3.6991 1.98875 2.99183Z" stroke="white" stroke-width="1.5" stroke-linecap="round" stroke-linejoin="round"/>
</svg>
