<svg width="26" height="26" viewBox="0 0 26 26" fill="none" xmlns="http://www.w3.org/2000/svg">
<path fill-rule="evenodd" clip-rule="evenodd" d="M9.23709 7.8912C8.0765 9.63296 7.03248 11.3764 6.39132 12.5199L4.78157 10.8484C3.78017 9.79066 3.78017 8.13465 4.78157 7.0769C5.25555 6.5797 5.91184 6.29737 6.59875 6.29517H10.3445C9.97083 6.80775 9.59882 7.34262 9.23709 7.8912Z" stroke="white" stroke-width="1.5" stroke-linecap="round" stroke-linejoin="round"/>
<path fill-rule="evenodd" clip-rule="evenodd" d="M18.1089 16.7627C16.3671 17.9233 14.6237 18.9674 13.4802 19.6085L15.1517 21.2183C16.2094 22.2197 17.8654 22.2197 18.9232 21.2183C19.4204 20.7443 19.7027 20.088 19.7049 19.4011V15.6553C19.1923 16.029 18.6575 16.401 18.1089 16.7627Z" stroke="white" stroke-width="1.5" stroke-linecap="round" stroke-linejoin="round"/>
<path d="M5.50596 15.5872C5.79879 15.2942 5.79869 14.8194 5.50573 14.5265C5.21277 14.2337 4.7379 14.2338 4.44507 14.5268L5.50596 15.5872ZM0.469555 18.504C0.176725 18.797 0.176828 19.2718 0.469785 19.5647C0.762742 19.8575 1.23762 19.8574 1.53045 19.5644L0.469555 18.504ZM8.48718 18.5717C8.77995 18.2786 8.77974 17.8038 8.48672 17.511C8.1937 17.2182 7.71883 17.2184 7.42606 17.5115L8.48718 18.5717ZM5.44088 19.4984C5.14811 19.7914 5.14831 20.2663 5.44134 20.559C5.73435 20.8518 6.20923 20.8516 6.502 20.5586L5.44088 19.4984ZM6.92129 11.9819C6.62804 11.6894 6.15317 11.69 5.86063 11.9832C5.56809 12.2765 5.56867 12.7513 5.86191 13.0439L6.92129 11.9819ZM9.94368 16.0564L10.4747 15.5267L10.4734 15.5254L9.94368 16.0564ZM12.9562 20.1382C13.2488 20.4314 13.7236 20.432 14.0169 20.1395C14.3101 19.8469 14.3107 19.3721 14.0182 19.0788L12.9562 20.1382ZM9.72214 5.86644C9.49111 6.21024 9.58253 6.67623 9.92634 6.90726C10.2701 7.13829 10.7361 7.04687 10.9672 6.70307L9.72214 5.86644ZM13.4613 2.63152L12.9819 2.05474C12.971 2.06376 12.9605 2.07308 12.9501 2.08269L13.4613 2.63152ZM24.8392 1.16063L25.5855 1.08627C25.5501 0.730865 25.269 0.449739 24.9136 0.414326L24.8392 1.16063ZM23.3684 12.5403L23.9172 13.0515C23.9269 13.0411 23.9362 13.0304 23.9453 13.0195L23.3684 12.5403ZM19.2968 15.0345C18.953 15.2655 18.8616 15.7315 19.0926 16.0753C19.3237 16.4191 19.7896 16.5105 20.1334 16.2795L19.2968 15.0345ZM11.4733 21.5549C11.7662 21.2621 11.7663 20.7872 11.4735 20.4943C11.1807 20.2013 10.7058 20.2012 10.4128 20.494L11.4733 21.5549ZM6.4356 24.4696C6.14265 24.7624 6.14255 25.2373 6.43538 25.5302C6.72821 25.8232 7.20308 25.8233 7.49604 25.5304L6.4356 24.4696ZM20.9554 6.10536C21.2483 5.81246 21.2483 5.33759 20.9554 5.0447C20.6625 4.7518 20.1876 4.7518 19.8947 5.0447L20.9554 6.10536ZM17.7741 7.16532C17.4812 7.45821 17.4812 7.93309 17.7741 8.22598C18.067 8.51887 18.5419 8.51887 18.8348 8.22598L17.7741 7.16532ZM4.97551 15.057L4.44507 14.5268L0.469555 18.504L1 19.0342L1.53045 19.5644L5.50596 15.5872L4.97551 15.057ZM7.95662 18.0416L7.42606 17.5115L5.44088 19.4984L5.97144 20.0285L6.502 20.5586L8.48718 18.5717L7.95662 18.0416ZM6.3916 12.5129L5.86191 13.0439L9.41399 16.5874L9.94368 16.0564L10.4734 15.5254L6.92129 11.9819L6.3916 12.5129ZM9.94368 16.0564L9.41271 16.5861L12.9562 20.1382L13.4872 19.6085L14.0182 19.0788L10.4746 15.5267L9.94368 16.0564ZM10.3446 6.28475L10.9672 6.70307C11.8309 5.41774 12.8392 4.23577 13.9724 3.18036L13.4613 2.63152L12.9501 2.08269C11.7329 3.21631 10.6499 4.48587 9.72214 5.86644L10.3446 6.28475ZM13.4613 2.63152L13.9407 3.2083C14.3794 2.84366 15.0705 2.53613 15.9735 2.3005C16.8647 2.06796 17.9016 1.92071 18.9784 1.8377C21.1325 1.67163 23.3708 1.76803 24.7649 1.90693L24.8392 1.16063L24.9136 0.414326C23.4516 0.268656 21.123 0.167907 18.8631 0.342133C17.7329 0.429265 16.6011 0.586528 15.5948 0.8491C14.6003 1.10859 13.6652 1.48679 12.9819 2.05474L13.4613 2.63152ZM24.8392 1.16063L24.0929 1.23499C24.2318 2.6291 24.3282 4.86741 24.1622 7.0217C24.0792 8.0986 23.9319 9.13566 23.6994 10.0271C23.4637 10.9304 23.1562 11.6219 22.7914 12.0611L23.3684 12.5403L23.9453 13.0195C24.5131 12.3358 24.8913 11.4005 25.1508 10.4058C25.4133 9.39927 25.5706 8.26728 25.6577 7.13699C25.832 4.87688 25.7312 2.54823 25.5855 1.08627L24.8392 1.16063ZM23.3684 12.5403L22.8195 12.0292C21.7641 13.1624 20.5821 14.1708 19.2968 15.0345L19.7151 15.657L20.1334 16.2795C21.514 15.3518 22.7836 14.2687 23.9172 13.0515L23.3684 12.5403ZM10.943 21.0245L10.4128 20.494L6.4356 24.4696L6.96582 25L7.49604 25.5304L11.4733 21.5549L10.943 21.0245ZM20.4251 5.57503L19.8947 5.0447L17.7741 7.16532L18.3044 7.69565L18.8348 8.22598L20.9554 6.10536L20.4251 5.57503Z" fill="white"/>
</svg>
