<svg width="26" height="26" viewBox="0 0 26 26" fill="none" xmlns="http://www.w3.org/2000/svg">
<path fill-rule="evenodd" clip-rule="evenodd" d="M9.72727 19.8571C9.37136 16.1921 5.66458 13.2796 1 13C5.66458 12.7203 9.37136 9.80785 9.72727 6.14282C10.0832 9.80785 13.79 12.7203 18.4545 13C13.79 13.2796 10.0832 16.1921 9.72727 19.8571V19.8571Z" stroke="white" stroke-width="1.5" stroke-linecap="round" stroke-linejoin="round"/>
<path fill-rule="evenodd" clip-rule="evenodd" d="M20.6363 25C20.4579 23.1676 18.6048 21.7116 16.2727 21.5714C18.6048 21.4312 20.4579 19.9752 20.6363 18.1428C20.8147 19.9752 22.6679 21.4312 25 21.5714C22.6679 21.7116 20.8147 23.1676 20.6363 25Z" stroke="white" stroke-width="1.5" stroke-linecap="round" stroke-linejoin="round"/>
<path fill-rule="evenodd" clip-rule="evenodd" d="M20.6363 1C20.4579 2.83235 18.6048 4.2884 16.2727 4.42857C18.6048 4.56874 20.4579 6.02479 20.6363 7.85714C20.8147 6.02479 22.6679 4.56874 25 4.42857C22.6679 4.2884 20.8147 2.83235 20.6363 1Z" stroke="white" stroke-width="1.5" stroke-linecap="round" stroke-linejoin="round"/>
</svg>
