<svg width="1920" height="673" viewBox="0 0 1920 673" fill="none" xmlns="http://www.w3.org/2000/svg">
<g filter="url(#filter0_d_87_429)">
<path d="M1920 0.146332H0V664.098H1920V0.146332ZM1426 9.65853H1797V100.976H1426V9.65853ZM1426 110.488H1797V210.366H1426V110.488ZM1426 219.878H1797V324.512H1426V219.878ZM1426 334.024H1797V490.024H1426V334.024ZM1061 9.65853L1081 37.2439H979L967 9.65853H1061ZM1106 324.512L1060 219.878H1215L1292 324.512H1106ZM1299 334.024L1412 490.024H1179L1110 334.024H1299ZM1056 210.366L1012 110.488H1135L1208 210.366H1056ZM1008 100.976L983 46.7561H1088L1128 100.976H1008ZM965 26.7805L969 37.2439H965V26.7805ZM965 46.7561H973L998 100.976H965V46.7561ZM965 110.488H1002L1046 210.366H965V110.488ZM965 219.878H1050L1096 324.512H965V219.878ZM965 334.024H1100L1169 490.024H965V334.024ZM853 9.65853H953L941 37.2439H833L853 9.65853ZM625 324.512L702 219.878H859L812 324.512H625ZM808 334.024L738 490.024H506L619 334.024H808ZM708 210.366L780 110.488H908L863 210.366H708ZM787 100.976L827 46.7561H937L912 100.976H787ZM502 9.65853H842L776 100.976H502V9.65853ZM502 110.488H769L697 210.366H502V110.488ZM502 219.878H690L614 324.512H502V219.878ZM502 334.024H607L502 480.512V334.024ZM9 9.65853H128V100.976H9V9.65853ZM9 110.488H128V210.366H9V110.488ZM9 219.878H128V324.512H9V219.878ZM9 334.024H128V490.024H9V334.024ZM9 654.585V499.537H128V654.585H137V499.537H488L376 654.585H9ZM493 649.829H391L493 509.049V649.829ZM493 490.024H137V334.024H493V490.024ZM493 324.512H137V219.878H493V324.512ZM493 210.366H137V110.488H493V210.366ZM493 100.976H137V9.65853H493V100.976ZM502 649.829V499.537H734L667 649.829H502ZM956 649.829H677L744 499.537H956V649.829ZM956 490.024H748L818 334.024H956V490.024ZM956 324.512H822L869 219.878H956V324.512ZM956 210.366H873L918 110.488H956V210.366ZM956 100.976H922L946 46.7561H956V100.976ZM956 37.2439H951L956 25.8293V37.2439ZM965 649.829V499.537H1173L1240 649.829H965ZM1417 649.829H1250L1183 499.537H1417V649.829ZM1417 480.512L1310 334.024H1417V480.512ZM1417 324.512H1303L1226 219.878H1417V324.512ZM1417 210.366H1219L1147 110.488H1417V210.366ZM1417 100.976H1140L1073 9.65853H1417V100.976ZM1426 649.829V509.049L1529 649.829H1426ZM1911 654.585H1544L1431 499.537H1797V654.585H1806V499.537H1911V654.585ZM1911 490.024H1806V334.024H1911V490.024ZM1911 324.512H1806V219.878H1911V324.512ZM1911 210.366H1806V110.488H1911V210.366ZM1911 100.976H1806V9.65853H1911V100.976Z" fill="#38FFFF" fill-opacity="0.2" shape-rendering="crispEdges"/>
<path d="M1920 0.146332H0V664.098H1920V0.146332ZM1426 9.65853H1797V100.976H1426V9.65853ZM1426 110.488H1797V210.366H1426V110.488ZM1426 219.878H1797V324.512H1426V219.878ZM1426 334.024H1797V490.024H1426V334.024ZM1061 9.65853L1081 37.2439H979L967 9.65853H1061ZM1106 324.512L1060 219.878H1215L1292 324.512H1106ZM1299 334.024L1412 490.024H1179L1110 334.024H1299ZM1056 210.366L1012 110.488H1135L1208 210.366H1056ZM1008 100.976L983 46.7561H1088L1128 100.976H1008ZM965 26.7805L969 37.2439H965V26.7805ZM965 46.7561H973L998 100.976H965V46.7561ZM965 110.488H1002L1046 210.366H965V110.488ZM965 219.878H1050L1096 324.512H965V219.878ZM965 334.024H1100L1169 490.024H965V334.024ZM853 9.65853H953L941 37.2439H833L853 9.65853ZM625 324.512L702 219.878H859L812 324.512H625ZM808 334.024L738 490.024H506L619 334.024H808ZM708 210.366L780 110.488H908L863 210.366H708ZM787 100.976L827 46.7561H937L912 100.976H787ZM502 9.65853H842L776 100.976H502V9.65853ZM502 110.488H769L697 210.366H502V110.488ZM502 219.878H690L614 324.512H502V219.878ZM502 334.024H607L502 480.512V334.024ZM9 9.65853H128V100.976H9V9.65853ZM9 110.488H128V210.366H9V110.488ZM9 219.878H128V324.512H9V219.878ZM9 334.024H128V490.024H9V334.024ZM9 654.585V499.537H128V654.585H137V499.537H488L376 654.585H9ZM493 649.829H391L493 509.049V649.829ZM493 490.024H137V334.024H493V490.024ZM493 324.512H137V219.878H493V324.512ZM493 210.366H137V110.488H493V210.366ZM493 100.976H137V9.65853H493V100.976ZM502 649.829V499.537H734L667 649.829H502ZM956 649.829H677L744 499.537H956V649.829ZM956 490.024H748L818 334.024H956V490.024ZM956 324.512H822L869 219.878H956V324.512ZM956 210.366H873L918 110.488H956V210.366ZM956 100.976H922L946 46.7561H956V100.976ZM956 37.2439H951L956 25.8293V37.2439ZM965 649.829V499.537H1173L1240 649.829H965ZM1417 649.829H1250L1183 499.537H1417V649.829ZM1417 480.512L1310 334.024H1417V480.512ZM1417 324.512H1303L1226 219.878H1417V324.512ZM1417 210.366H1219L1147 110.488H1417V210.366ZM1417 100.976H1140L1073 9.65853H1417V100.976ZM1426 649.829V509.049L1529 649.829H1426ZM1911 654.585H1544L1431 499.537H1797V654.585H1806V499.537H1911V654.585ZM1911 490.024H1806V334.024H1911V490.024ZM1911 324.512H1806V219.878H1911V324.512ZM1911 210.366H1806V110.488H1911V210.366ZM1911 100.976H1806V9.65853H1911V100.976Z" stroke="#38FFFF" stroke-opacity="0.2" shape-rendering="crispEdges"/>
</g>
<defs>
<filter id="filter0_d_87_429" x="-4" y="0.146332" width="1928" height="671.951" filterUnits="userSpaceOnUse" color-interpolation-filters="sRGB">
<feFlood flood-opacity="0" result="BackgroundImageFix"/>
<feColorMatrix in="SourceAlpha" type="matrix" values="0 0 0 0 0 0 0 0 0 0 0 0 0 0 0 0 0 0 127 0" result="hardAlpha"/>
<feOffset dy="4"/>
<feGaussianBlur stdDeviation="2"/>
<feComposite in2="hardAlpha" operator="out"/>
<feColorMatrix type="matrix" values="0 0 0 0 0 0 0 0 0 0 0 0 0 0 0 0 0 0 0.25 0"/>
<feBlend mode="normal" in2="BackgroundImageFix" result="effect1_dropShadow_87_429"/>
<feBlend mode="normal" in="SourceGraphic" in2="effect1_dropShadow_87_429" result="shape"/>
</filter>
</defs>
</svg>
