<svg width="24" height="24" viewBox="0 0 24 24" fill="none" xmlns="http://www.w3.org/2000/svg">
<path fill-rule="evenodd" clip-rule="evenodd" d="M19.2019 5.81146C20.0098 6.02964 20.6448 6.66627 20.8595 7.47325C21.25 8.93778 21.25 11.9954 21.25 11.9954C21.25 11.9954 21.25 15.0529 20.8595 16.5175C20.6418 17.3274 20.0068 17.9641 19.2019 18.1793C17.7411 18.5708 11.88 18.5708 11.88 18.5708C11.88 18.5708 6.0219 18.5708 4.55811 18.1793C3.7502 17.9611 3.1152 17.3245 2.90055 16.5175C2.51001 15.0529 2.51001 11.9954 2.51001 11.9954C2.51001 11.9954 2.51001 8.93778 2.90055 7.47325C3.11818 6.66328 3.75318 6.02666 4.55811 5.81146C6.0219 5.41992 11.88 5.41992 11.88 5.41992C11.88 5.41992 17.7411 5.41992 19.2019 5.81146ZM14.8761 11.9954L10.0078 14.8138V9.17689L14.8761 11.9954Z" fill="white"/>
</svg>
